#!OML:ASF X:\für Bonn\!DataBase\2005_08_12_Daniel\c3d\Daniel.ASF
:FULLY-SPECIFIED
:DEGREES
213
root -0.473014 15.5211 -0.355894 709.474 -139.434 0.972298
lowerback 49.4711 -2.69142 4.4883
upperback 12.0515 -5.46469 -1.32314
thorax -7.23146 -4.12068 -1.03216
lowerneck -0.0465927 3.63401 0.340215
upperneck 0.214394 4.77794 -8.60905
head 0.311308 2.33294 -2.7626
rclavicle 1.98785e-014 -1.70955e-014
rhumerus -37.9193 6.47276 -84.085
rradius 112.838
rwrist 9.1177
rhand -40.1848 8.88852
rfingers 7.12502
rthumb -13.1459 -20.6771
lclavicle 1.98785e-014 -1.70955e-014
lhumerus 153.398 168.057 261.273
lradius 105.598
lwrist -22.72
lhand -30.3202 2.60113
lfingers 7.12502
lthumb -3.62664 32.55
rfemur -31.9282 1.73914 26.5736
rtibia 68.7283
rfoot -23.8004 6.46648
rtoes -4.49211
lfemur -17.8527 6.79795 -14.5348
ltibia 94.6263
lfoot -18.7635 -10.7632
ltoes -7.64542
214
root -0.537539 15.5257 -0.445346 709.386 -139.241 0.84831
lowerback 49.5135 -2.56368 4.47177
upperback 12.0686 -5.32117 -1.3952
thorax -7.22013 -4.04916 -1.16193
lowerneck -0.257085 3.56596 0.279236
upperneck 0.406364 4.70491 -8.53132
head 0.400555 2.28589 -2.72009
rclavicle 8.82604e-014 -6.48038e-014
rhumerus -37.7918 6.06298 -83.7271
rradius 112.709
rwrist 9.16309
rhand -40.2826 8.71253
rfingers 7.12502
rthumb -13.2402 -20.847
lclavicle 8.82604e-014 -6.48038e-014
lhumerus 153.319 167.863 261.08
lradius 105.544
lwrist -22.6713
lhand -30.2661 2.73448
lfingers 7.12502
lthumb -3.57442 32.6843
rfemur -31.3619 1.74077 26.515
rtibia 68.892
rfoot -24.1689 6.29608
rtoes -4.51709
lfemur -19.1059 6.75307 -14.6055
ltibia 94.7418
lfoot -19.0634 -10.6983
ltoes -6.9091
215
root -0.602925 15.5335 -0.534466 709.333 -139.063 0.711119
lowerback 49.5589 -2.41691 4.38098
upperback 12.0591 -5.18044 -1.42821
thorax -7.23319 -3.98017 -1.21276
lowerneck -0.406167 3.51279 0.171217
upperneck 0.570792 4.64694 -8.48886
head 0.471114 2.24756 -2.68261
rclavicle 1.94809e-014 -8.15017e-014
rhumerus -37.622 5.702 -83.3033
rradius 112.514
rwrist 9.11368
rhand -40.4133 8.64593
rfingers 7.12502
rthumb -13.3662 -20.9053
lclavicle 1.94809e-014 -8.15017e-014
lhumerus 153.166 167.575 260.942
lradius 105.503
lwrist -22.6059
lhand -30.2373 2.81795
lfingers 7.12502
lthumb -3.54665 32.7682
rfemur -30.8038 1.70306 26.4309
rtibia 69.0526
rfoot -24.4709 6.2158
rtoes -4.22678
lfemur -20.3536 6.66531 -14.7288
ltibia 94.7642
lfoot -19.4129 -10.6414
ltoes -6.68032
216
root -0.667396 15.539 -0.623261 709.25 -138.867 0.610475
lowerback 49.615 -2.28964 4.34256
upperback 12.036 -5.03302 -1.46233
thorax -7.26359 -3.9058 -1.29073
lowerneck -0.464742 3.44589 0.00919815
upperneck 0.632674 4.56177 -8.38888
head 0.489547 2.20124 -2.61926
rclavicle 4.69132e-014 3.22031e-014
rhumerus -37.4992 5.33533 -82.8376
rradius 112.332
rwrist 8.99205
rhand -40.515 8.50439
rfingers 7.12502
rthumb -13.4642 -21.0404
lclavicle 4.69132e-014 3.22031e-014
lhumerus 153.014 167.315 260.733
lradius 105.439
lwrist -22.5151
lhand -30.167 2.94294
lfingers 7.12502
lthumb -3.47869 32.8943
rfemur -30.2501 1.66847 26.3933
rtibia 69.2092
rfoot -24.8096 6.04932
rtoes -4.22313
lfemur -21.5793 6.54491 -14.8502
ltibia 94.6997
lfoot -19.8531 -10.5961
ltoes -7.06113
217
root -0.732272 15.5425 -0.711134 709.156 -138.627 0.480745
lowerback 49.6909 -2.20401 4.33536
upperback 12.0272 -4.93135 -1.55958
thorax -7.28941 -3.8502 -1.4316
lowerneck -0.626206 3.38675 -0.0852322
upperneck 0.803926 4.49933 -8.25107
head 0.561958 2.1621 -2.55286
rclavicle 9.06458e-014 -1.90833e-014
rhumerus -37.2742 4.89254 -82.4274
rradius 112.056
rwrist 8.81291
rhand -40.7113 8.35394
rfingers 7.12502
rthumb -13.6534 -21.1783
lclavicle 9.06458e-014 -1.90833e-014
lhumerus 152.866 167.069 260.436
lradius 105.356
lwrist -22.4124
lhand -30.0474 3.05336
lfingers 7.12502
lthumb -3.36319 33.0066
rfemur -29.6637 1.57892 26.3081
rtibia 69.38
rfoot -25.1195 5.97431
rtoes -4.03223
lfemur -22.7593 6.37646 -15.0187
ltibia 94.5597
lfoot -20.338 -10.6105
ltoes -7.40034
218
root -0.797196 15.5466 -0.797386 709.059 -138.441 0.385308
lowerback 49.8027 -2.08876 4.30513
upperback 11.9774 -4.79158 -1.6021
thorax -7.35784 -3.77847 -1.51591
lowerneck -0.760518 3.33162 -0.226252
upperneck 0.95406 4.43839 -8.17522
head 0.623765 2.12325 -2.49973
rclavicle 5.32743e-014 3.06128e-014
rhumerus -37.1029 4.51833 -81.933
rradius 111.833
rwrist 8.49257
rhand -40.8558 8.25152
rfingers 7.12502
rthumb -13.7926 -21.2713
lclavicle 5.32743e-014 3.06128e-014
lhumerus 152.657 166.836 260.145
lradius 105.292
lwrist -22.2446
lhand -29.9878 3.10723
lfingers 7.12502
lthumb -3.30565 33.0614
rfemur -29.1057 1.51183 26.2638
rtibia 69.5423
rfoot -25.4092 5.8764
rtoes -4.00717
lfemur -23.9717 6.29339 -15.1703
ltibia 94.3596
lfoot -20.8059 -10.575
ltoes -8.19268
219
root -0.862355 15.549 -0.88413 709.035 -138.21 0.233146
lowerback 49.8451 -1.99567 4.26917
upperback 11.9332 -4.68087 -1.68799
thorax -7.41618 -3.71483 -1.63492
lowerneck -0.925441 3.27026 -0.344752
upperneck 1.16381 4.37503 -8.05725
head 0.708981 2.08166 -2.43625
rclavicle -1.11319e-014 7.27552e-014
rhumerus -36.991 4.08264 -81.4708
rradius 111.629
rwrist 8.23901
rhand -40.9885 8.05527
rfingers 7.12502
rthumb -13.9205 -21.4588
lclavicle -1.11319e-014 7.27552e-014
lhumerus 152.463 166.551 259.859
lradius 105.173
lwrist -22.2075
lhand -29.8095 3.13913
lfingers 7.12502
lthumb -3.13353 33.0959
rfemur -28.6209 1.36612 26.155
rtibia 69.746
rfoot -25.7126 5.83195
rtoes -4.13048
lfemur -25.1822 6.15375 -15.4099
ltibia 94.0625
lfoot -21.2331 -10.5524
ltoes -8.48976
